<svg id="Layer_1" data-name="Layer 1" xmlns="http://www.w3.org/2000/svg" viewBox="0 0 87.66 78.92"><defs><style>.cls-1{fill:#134982;}.cls-2{fill:#75973d;}</style></defs><path class="cls-1" d="M132.68,67c-8.21,4.11-19,10.83-21.91,25.63a26.48,26.48,0,0,0-.34,3.56q-.12,2-.09,4c0,1.41.11,2.82.26,4.21a37.8,37.8,0,0,0,.68,4.24,28.74,28.74,0,0,0,1.19,4.07,23.14,23.14,0,0,0,1.79,3.72,17.24,17.24,0,0,0,2.49,3.16A14.33,14.33,0,0,0,120,122c7.13,3.86,19.8,1,17.06-9.21-1.42-5.32-6.19-7.59-9.52-11.52a17.29,17.29,0,0,1-3.05-4.66c-.26-.68-.5-1.35-.72-2a26.76,26.76,0,0,1-1-4.49,19.06,19.06,0,0,1,0-4.89,16.6,16.6,0,0,1,1.52-5.07,19.78,19.78,0,0,1,3.6-5,30.64,30.64,0,0,1,6.21-4.83c1-.61,2.05-1.17,3.11-1.7A27.3,27.3,0,0,0,129,72.85a29.76,29.76,0,0,0-8.67,9.57c-2.21,3.82-3.23,8.39-3.81,12.76a39.41,39.41,0,0,0-.36,4.47c0,.18-.16,1.59,0,1.7-.35-.24-.41-1.43-.47-1.78-.58-3.33.17-9.08,1.08-12.36a23.67,23.67,0,0,1,7.35-11.67c5.25-5,13.94-9.87,22.17-10.25h0a45.1,45.1,0,0,1,13.68.41,44.12,44.12,0,0,1,4.79.78l3.43-.59C163.7,64.63,149.41,59.54,132.68,67Zm-4.93,36.85a14.23,14.23,0,0,1,2.05,1.61c.6.59,1.18,1.2,1.72,1.84a18.07,18.07,0,0,1,3,4.63,7,7,0,0,1,.45,5c-.7,2-2.59,3.38-4.48,4.25a21.2,21.2,0,0,1-2.56.94,8,8,0,0,0,5.47-7.07,11.3,11.3,0,0,0-1.31-5.1,20.11,20.11,0,0,0-3-4.3,14,14,0,0,0-2.5-2.55C127,103.32,127.36,103.57,127.75,103.83Z" transform="translate(-110.34 -63.02)"/><path class="cls-2" d="M146.87,98.26c-3.52-1.31-7-3.53-5.09-13.31,1.44,3.13,1.31,5.61,5.09,5.22-.65-5.22-1-8.35-1.44-10.31,2-2.34,6.66-5.34,9.13-6.91-1.69,2.61-5.73,10,0,14.74,1.83-5.28,4.57-14.22,5.61-16.43,2.48-.53,11.09-.66,12.79-.79-2.48,2-8.22,6.13-5.09,11A132.89,132.89,0,0,0,176.61,71c2.09,0,7.37,1,8.22,2.08-.53,1.7-5.48,5.35-2.22,7,2.22-2.87,4.2-5.75,5.48-6.66.91.26,9.91,5.87,9.91,5.87l-4.3,7a86.15,86.15,0,0,0-9-.92c1.43,1.57,1.69,3,7.82,2.35-3.13,4.18-4.17,6-5,7.18-3.65-.53-9.39-.79-15-2.09-.13,2.48-.39,5.22,13.7,4.82-2.48,1.7-9,6.4-9,6.4s-6-4.57-16.56-6.4c1.17,3.4,4.69,8.35,12.78,8.09-2.71,2.3-12.39,5.09-12.39,5.09s-3.92-9-5.87-8.61c-.66.78-1.44,3.52,2.34,8.09-3.78-.13-4.69.91-8.73-5-6.13,4.3-9.92,38.35,22.95,28.83C199,125,194.58,94,194.58,94a20.63,20.63,0,0,1,1.78,6.78,38.21,38.21,0,0,1-2.24,16.85c-5.12,13.71-16.73,23.48-31.51,24.31-6.39.35-13.26-1.16-17.73-6-3.35-3.66-4.76-8.56-5-13.42-.41-7.31,1-13.66,5.49-19.61a46.42,46.42,0,0,1,5.77-6.28,41.2,41.2,0,0,1,6.85-5.2,20.41,20.41,0,0,0,11.87,5.87,19.1,19.1,0,0,1,.52-2.08s-7-1.18-10.18-4.83C164.84,88,170.35,86,170.35,86s3.91,3.38,14.35,5.07a6.86,6.86,0,0,0,.26-1.82s-9.55-3-11.51-3.93c3.52-.65,16.46-2.92,16.46-2.92L189,80.26l-11,2.15s-.78-.2-.26-4l-1.56-.26S175,79.47,175.3,83c-5.21,1.43-11.47,3.13-12.65,3.78a20.43,20.43,0,0,1,.13-6.26l-1.69-.13a13,13,0,0,0-.66,7.17C157.43,89.26,149.61,94.34,146.87,98.26Z" transform="translate(-110.34 -63.02)"/></svg>